<svg xmlns="http://www.w3.org/2000/svg" width="16" height="13" viewBox="0 0 16 13">
  <path fill="#FFF" fill-rule="evenodd" d="M14.5,13 L1.5,13 C0.673,13 0,12.327 0,11.5 L0,3.5 C0,2.673 0.673,2 1.5,2 L3.6905,2 L4.551,0.2765 C4.635,0.107 4.8085,0 4.998,0 L11.003,0 C11.1925,0 11.3655,0.107 11.4505,0.2765 L12.3095,2 L14.5,2 C15.327,2 16,2.673 16,3.5 L16,11.5 C16,12.327 15.327,13 14.5,13 Z M15,3.5 C15,3.2245 14.7755,3 14.5,3 L12,3 C11.975,3 11.954,2.9895 11.93,2.986 C11.894,2.981 11.8585,2.9775 11.8245,2.9645 C11.794,2.953 11.769,2.935 11.7415,2.918 C11.7145,2.901 11.6865,2.8865 11.663,2.8645 C11.6365,2.84 11.618,2.81 11.597,2.7805 C11.583,2.7605 11.564,2.746 11.5525,2.723 L10.6935,1 L5.3075,1 L4.4475,2.723 C4.424,2.7705 4.3925,2.8115 4.3575,2.8475 C4.3505,2.855 4.3415,2.86 4.334,2.867 C4.2985,2.899 4.259,2.9255 4.2165,2.946 C4.2015,2.9535 4.1875,2.9595 4.172,2.9655 C4.117,2.9855 4.06,2.9995 4.001,3 C4.0005,3 4.0005,3 4,3 L1.5,3 C1.2245,3 1,3.2245 1,3.5 L1,11.5 C1,11.7755 1.2245,12 1.5,12 L14.5,12 C14.7755,12 15,11.7755 15,11.5 L15,3.5 Z M8,10.5 C6.07,10.5 4.5,8.93 4.5,7 C4.5,5.07 6.07,3.5 8,3.5 C9.93,3.5 11.5,5.07 11.5,7 C11.5,8.93 9.93,10.5 8,10.5 Z M8,4.5 C6.6215,4.5 5.5,5.6215 5.5,7 C5.5,8.3785 6.6215,9.5 8,9.5 C9.3785,9.5 10.5,8.3785 10.5,7 C10.5,5.6215 9.3785,4.5 8,4.5 Z"/>
</svg>
