<?xml version="1.0" encoding="UTF-8"?>
<svg width="14px" height="15px" viewBox="0 0 14 15" version="1.1" xmlns="http://www.w3.org/2000/svg" xmlns:xlink="http://www.w3.org/1999/xlink">
    <!-- Generator: Sketch 53.2 (72643) - https://sketchapp.com -->
    <title>icons/mainNav Copy 2</title>
    <desc>Created with Sketch.</desc>
    <defs>
        <path d="M13.416813,13.4166667 L10.5002928,13.4166667 C10.1782518,13.4166667 9.91652028,13.1665932 9.91652028,12.857944 C9.91652028,12.5492947 10.1782518,12.298658 10.5002928,12.298658 L12.0092012,12.298658 L8.57917189,9.01165638 C7.40460059,7.88688902 5.84358009,7.26733764 4.18360519,7.26733764 L0.58377248,7.26733764 C0.261731493,7.26733764 -1.77635684e-15,7.01726418 -1.77635684e-15,6.70805172 C-1.77635684e-15,6.39940249 0.248264325,6.16791556 0.570305312,6.16791556 L3.90840652,6.16791556 C3.94119615,6.16228328 3.97105813,6.14932902 4.00501882,6.14932902 L4.18360519,6.14932902 C4.23278963,6.14932902 4.28138854,6.15552454 4.33057298,6.15608777 C5.90740276,6.09638554 7.46315349,5.47401802 8.57917189,4.40501029 L12.0086156,1.11857185 L10.5002928,1.11857185 C10.1782518,1.11857185 9.91652028,0.867935155 9.91652028,0.559285924 C9.91652028,0.250636693 10.1782518,-5.628391e-14 10.5002928,-5.62272169e-14 L13.415642,-5.57139901e-14 C13.4923463,-5.57004869e-14 13.5684651,0.0146439416 13.6404852,0.0433685963 C13.7084065,0.0704035655 13.7693015,0.110392791 13.8214136,0.158830444 C13.8237558,0.161083358 13.8272689,0.161646586 13.8290255,0.1638995 C13.8828942,0.215716525 13.9256378,0.277108434 13.9549143,0.345822314 C13.9841907,0.412846508 13.9988289,0.484376531 13.9994145,0.555906553 C13.9994145,0.55703301 14,0.558159467 14,0.559285924 L14,3.35458909 C14,3.66323832 13.7394396,3.91331178 13.416813,3.91331178 C13.0947721,3.91331178 12.8336261,3.66323832 12.8336261,3.35458909 L12.8336261,1.90821824 L9.40359682,5.1952199 C8.72086993,5.84969145 7.92689251,6.35772358 7.06323714,6.70805172 C7.92689251,7.05894309 8.72086993,7.56697522 9.40359682,8.22144676 L12.8336261,11.5084484 L12.8336261,10.0626408 C12.8336261,9.75399158 13.0947721,9.50391811 13.416813,9.50391811 C13.7394396,9.50391811 14,9.75399158 14,10.0626408 L14,12.857944 C14,12.8647027 13.9964868,12.8697718 13.9964868,12.8765305 C13.9941447,12.9429915 13.9818486,13.0088892 13.9554998,13.0708444 C13.8963614,13.2082721 13.7821832,13.3169752 13.6393141,13.3738613 C13.5795901,13.3975169 13.516353,13.4059653 13.4531159,13.4099079 C13.4408197,13.4104712 13.4296947,13.4166667 13.416813,13.4166667 Z" id="path-1"></path>
    </defs>
    <g id="Page-1" stroke="none" stroke-width="1" fill="none" fill-rule="evenodd">
        <g id="Dashboard" transform="translate(-1056.000000, -840.000000)">
            <g id="campaigns-active" transform="translate(1051.000000, 836.000000)">
                <g id="colors/primaryWhite" transform="translate(5.000000, 4.791667)">
                    <mask id="mask-2" fill="white">
                        <use xlink:href="#path-1"></use>
                    </mask>
                    <use id="Mask" fill="#FFFFFF" xlink:href="#path-1"></use>
                    <g mask="url(#mask-2)" fill-rule="nonzero" id="Rectangle">
                        <g transform="translate(-5.000000, -4.791667)">
                            <rect fill="#323232" x="0" y="0" width="24" height="23"></rect>
                            <rect fill="#FFFFFF" x="0" y="0" width="24" height="23"></rect>
                        </g>
                    </g>
                </g>
            </g>
        </g>
    </g>
</svg>