<svg xmlns="http://www.w3.org/2000/svg" xmlns:xlink="http://www.w3.org/1999/xlink" width="24" height="24" viewBox="0 0 24 24">
  <defs>
    <path id="campaigns-active-a" d="M18.416813,19 L15.5002928,19 C15.1782518,19 14.9165203,18.7390538 14.9165203,18.416985 C14.9165203,18.0949163 15.1782518,17.8333823 15.5002928,17.8333823 L17.0092012,17.8333823 L13.5791719,14.4034675 C12.4046006,13.2297972 10.8435801,12.5833088 9.18360519,12.5833088 L5.58377248,12.5833088 C5.26173149,12.5833088 5,12.3223626 5,11.9997061 C5,11.6776374 5.24826432,11.4360858 5.57030531,11.4360858 L8.90840652,11.4360858 C8.94119615,11.4302086 8.97105813,11.4166912 9.00501882,11.4166912 L9.18360519,11.4166912 C9.23278963,11.4166912 9.28138854,11.423156 9.33057298,11.4237438 C10.9074028,11.3614458 12.4631535,10.7120188 13.5791719,9.59653247 L17.0086156,6.16720541 L15.5002928,6.16720541 C15.1782518,6.16720541 14.9165203,5.90567147 14.9165203,5.5836027 C14.9165203,5.26153394 15.1782518,5 15.5002928,5 L18.415642,5 C18.4923463,5 18.5684651,5.01528063 18.6404852,5.04525419 C18.7084065,5.07346459 18.7693015,5.11519248 18.8214136,5.16573612 C18.8237558,5.16808698 18.8272689,5.1686747 18.8290255,5.17102557 C18.8828942,5.2250955 18.9256378,5.28915663 18.9549143,5.36085807 C18.9841907,5.43079636 18.9988289,5.50543638 18.9994145,5.5800764 C18.9994145,5.58125184 19,5.58242727 19,5.5836027 L19,8.50044079 C19,8.82250955 18.7394396,9.08345577 18.416813,9.08345577 C18.0947721,9.08345577 17.8336261,8.82250955 17.8336261,8.50044079 L17.8336261,6.99118425 L14.4035968,10.421099 C13.7208699,11.1040259 12.9268925,11.6341463 12.0632371,11.9997061 C12.9268925,12.3658537 13.7208699,12.8959741 14.4035968,13.578901 L17.8336261,17.0088158 L17.8336261,15.5001469 C17.8336261,15.1780782 18.0947721,14.9171319 18.416813,14.9171319 C18.7394396,14.9171319 19,15.1780782 19,15.5001469 L19,18.416985 C19,18.4240376 18.9964868,18.4293271 18.9964868,18.4363797 C18.9941447,18.5057302 18.9818486,18.5744931 18.9554998,18.6391419 C18.8963614,18.7825448 18.7821832,18.8959741 18.6393141,18.9553335 C18.5795901,18.9800176 18.516353,18.9888334 18.4531159,18.9929474 C18.4408197,18.9935351 18.4296947,19 18.416813,19 Z"/>
  </defs>
  <use fill="#473454" fill-rule="evenodd" xlink:href="#campaigns-active-a"/>
</svg>
