<svg xmlns="http://www.w3.org/2000/svg" width="13" height="14" viewBox="0 0 13 14">
  <path fill="#5624BB" d="M1259.5,185 C1259.77614,185 1260,185.223858 1260,185.5 L1260,198.5 C1260,198.776142 1259.77614,199 1259.5,199 C1259.22386,199 1259,198.776142 1259,198.5 L1259,185.5 C1259,185.223858 1259.22386,185 1259.5,185 Z M1267.5,185 C1267.77614,185 1268,185.223858 1268,185.5 L1268,198.5 C1268,198.776142 1267.77614,199 1267.5,199 C1267.22386,199 1267,198.776142 1267,198.5 L1267,185.5 C1267,185.223858 1267.22386,185 1267.5,185 Z M1263.5,185 C1263.77614,185 1264,185.223858 1264,185.5 L1264,198.5 C1264,198.776142 1263.77614,199 1263.5,199 C1263.22386,199 1263,198.776142 1263,198.5 L1263,185.5 C1263,185.223858 1263.22386,185 1263.5,185 Z M1271.5,185 C1271.77614,185 1272,185.223858 1272,185.5 L1272,198.5 C1272,198.776142 1271.77614,199 1271.5,199 C1271.22386,199 1271,198.776142 1271,198.5 L1271,185.5 C1271,185.223858 1271.22386,185 1271.5,185 Z" transform="translate(-1259 -185)"/>
</svg>
