<svg xmlns="http://www.w3.org/2000/svg" width="12" height="15" viewBox="0 0 12 15">
  <path fill="#5624BB" fill-rule="evenodd" d="M11.5,4 L10.955,4 L10.0525,14.0585 C9.9935,14.5865 9.531,15 9,15 L3,15 C2.468,15 2.0065,14.586 1.948,14.0575 L1.06,4 L0.5,4 C0.224,4 0,3.776 0,3.5 C0,3.224 0.224,3 0.5,3 L3,3 L3,2.5 C3,1.673 4,0 5.5,0 L6.5,0 C8,0 9,1.673 9,2.5 L9,3 L11.5,3 C11.776,3 12,3.224 12,3.5 C12,3.776 11.776,4 11.5,4 Z M8,2.5 C8,2.2245 7.49604349,1 6.5,1 L5.42546265,1 C4.58880797,1 4,2.2245 4,2.5 L4,3 L8,3 L8,2.5 Z M2.066,4 L2.9425,13.9485 C2.9445,13.968 2.98,14 3,14 L9,14 C9.02,14 9.0565,13.9675 9.059,13.9475 L9.949,4 L2.066,4 Z"/>
</svg>
