<svg xmlns="http://www.w3.org/2000/svg" width="16" height="12" viewBox="0 0 16 12">
  <path fill="#5624BB" d="M1349.2,198.263473 L1349.2,198.52 C1349.2,198.785097 1349.02091,199 1348.8,199 C1348.57908,199 1348.4,198.785097 1348.4,198.52 L1348.4,194.752081 L1342.10104,187.66575 C1341.95427,187.500637 1341.96915,187.247808 1342.13426,187.101041 C1342.29937,186.954273 1342.5522,186.969146 1342.69897,187.134259 L1343.20641,187.705132 L1342.51261,187.705132 L1342.65122,187.857143 L1342.4,187.857143 C1342.17909,187.857143 1342,187.665265 1342,187.428571 C1342,187.191878 1342.17909,187 1342.4,187 L1357.6,187 C1357.82091,187 1358,187.191878 1358,187.428571 C1358,187.665265 1357.82091,187.857143 1357.6,187.857143 L1357.3952,187.857143 L1357.53462,187.705132 C1357.64529,187.20456 1357.75567,187.003196 1357.86574,187.101041 C1358.03085,187.247808 1358.04573,187.500637 1357.89896,187.66575 L1351.6,194.752081 L1351.6,198.52 C1351.6,198.785097 1351.42092,199 1351.2,199 C1350.97909,199 1350.8,198.785097 1350.8,198.52 L1350.8,198.263473 L1351.1948,198.263473 L1351.1948,198.142857 L1351.2,198.142857 C1351.42091,198.142857 1351.6,198.334735 1351.6,198.571429 C1351.6,198.808122 1351.42091,199 1351.2,199 L1348.8,199 C1348.57909,199 1348.4,198.808122 1348.4,198.571429 C1348.4,198.334735 1348.57909,198.142857 1348.8,198.142857 L1348.81563,198.142857 L1348.81563,198.263473 L1349.2,198.263473 Z" transform="translate(-1342 -187)"/>
</svg>
