<svg xmlns="http://www.w3.org/2000/svg" width="24" height="24" viewBox="0 0 24 24">
  <path fill="#5624BB" d="M17.9137696,6.35414687 C17.442181,5.88195104 16.6756941,5.88195104 16.2041055,6.35414687 C16.1866854,6.37264018 16.1630437,6.37757173 16.1443793,6.39483215 C16.1282034,6.41209257 16.1219819,6.43551743 16.1058061,6.45277785 L6.68647798,15.8720366 L6.26839419,18 L8.39863061,17.5808183 L17.8142258,8.16279249 C17.8328903,8.14429918 17.8577762,8.13813474 17.8776849,8.12087432 C17.8926165,8.10484679 17.8975937,8.08265482 17.9137696,8.06662728 C18.3866024,7.59443146 18.3866024,6.82634269 17.9137696,6.35414687 Z M18.6776011,8.71474204 C18.6595516,8.73808524 18.6372516,8.76671739 18.6093654,8.80252211 L18.5327492,8.87644749 C18.5039273,8.8980575 18.4806169,8.91553506 18.4613776,8.92986973 L8.89051448,18.5032036 L5,19.2687676 L5.76396575,15.3803337 L5.9793738,15.1649272 L15.3761468,5.76896688 C15.2591143,5.91806343 15.2591143,5.91806343 15.2490627,5.94154836 C15.2759123,5.88754947 15.2759123,5.88754947 15.4654263,5.66065038 C15.6029242,5.5524525 15.6252972,5.53484703 15.6652209,5.51321834 C15.6196551,5.53987317 15.5499096,5.59034299 15.4965439,5.64749522 C16.3586054,4.78432364 17.7586105,4.78416829 18.6208656,5.64702915 C19.4639853,6.48950528 19.4837615,7.84559055 18.6776011,8.71474204 Z"/>
</svg>
