<?xml version="1.0" encoding="UTF-8"?>
<svg width="16px" height="12px" viewBox="0 0 16 12" version="1.1" xmlns="http://www.w3.org/2000/svg" xmlns:xlink="http://www.w3.org/1999/xlink">
    <!-- Generator: Sketch 53.2 (72643) - https://sketchapp.com -->
    <title>icons/mainNav Copy 7</title>
    <desc>Created with Sketch.</desc>
    <defs>
        <path d="M16,9.7035 L16,10 C16,10.276 15.7891765,10.5 15.5294118,10.5 L10.8235294,10.5 C10.5637647,10.5 10.3529412,10.276 10.3529412,10 C10.3529412,9.724 10.5637647,9.5 10.8235294,9.5 L15.0517647,9.5 C14.9397647,7.854 13.48,6.5 11.7647059,6.5 C11.0032941,6.5 10.2842353,6.756 9.68517647,7.241 C9.47811765,7.408 9.18352941,7.3655 9.02588235,7.1465 C8.86823529,6.927 8.90823529,6.613 9.11529412,6.4455 C9.54211765,6.1 10.0324706,5.8535 10.5482353,5.6955 C9.60141176,5.2105 8.94117647,4.1895 8.94117647,3 C8.94117647,1.346 10.2075294,0 11.7647059,0 C13.3218824,0 14.5882353,1.346 14.5882353,3 C14.5882353,4.1845 13.9331765,5.2015 12.9929412,5.6885 C14.712,6.2255 16,7.847 16,9.7035 Z M13.6470588,3 C13.6470588,1.8975 12.8028235,1 11.7647059,1 C10.7265882,1 9.88235294,1.8975 9.88235294,3 C9.88235294,4.1025 10.7265882,5 11.7647059,5 C12.8028235,5 13.6470588,4.1025 13.6470588,3 Z M6.03435294,6.7 C7.96235294,7.285 9.41176471,9.0925 9.41176471,11.1665 L9.41176471,11.5 C9.41176471,11.776 9.20094118,12 8.94117647,12 L0.470588235,12 C0.210823529,12 0,11.776 0,11.5 L0,11.1665 C0,9.0925 1.44941176,7.285 3.37741176,6.7 C2.22117647,6.156 1.41176471,4.9275 1.41176471,3.5 C1.41176471,1.57 2.88941176,0 4.70588235,0 C6.52235294,0 8,1.57 8,3.5 C8,4.9275 7.19058824,6.156 6.03435294,6.7 Z M0.945411765,11 L8.46635294,11 C8.37364706,9.0865 6.68941176,7.5 4.70588235,7.5 C2.72235294,7.5 1.03811765,9.0865 0.945411765,11 Z M4.70588235,1 C3.40847059,1 2.35294118,2.1215 2.35294118,3.5 C2.35294118,4.8785 3.40847059,6 4.70588235,6 C6.00329412,6 7.05882353,4.8785 7.05882353,3.5 C7.05882353,2.1215 6.00329412,1 4.70588235,1 Z" id="path-1"></path>
    </defs>
    <g id="Page-1" stroke="none" stroke-width="1" fill="none" fill-rule="evenodd">
        <g id="Dashboard" transform="translate(-1056.000000, -1796.000000)">
            <g id="Icons/-Main-Nav-/-Users" transform="translate(1052.000000, 1790.000000)">
                <g id="users" transform="translate(4.000000, 6.000000)">
                    <g id="colors/primaryWhite">
                        <mask id="mask-2" fill="white">
                            <use xlink:href="#path-1"></use>
                        </mask>
                        <use id="Mask" fill="#5624BB" xlink:href="#path-1"></use>
                        <g mask="url(#mask-2)" fill-rule="nonzero" id="Rectangle">
                            <g transform="translate(-4.000000, -6.000000)">
                                <rect fill="#323232" x="0" y="0" width="24" height="24"></rect>
                                <rect fill="#FFFFFF" x="0" y="0" width="24" height="24"></rect>
                            </g>
                        </g>
                    </g>
                </g>
            </g>
        </g>
    </g>
</svg>