<svg xmlns="http://www.w3.org/2000/svg" width="7" height="7" viewBox="0 0 7 7">
  <path fill="#5624BB" fill-rule="evenodd" d="M709.327842,7 L706.5,7 C706.223858,7 706,6.77614237 706,6.5 C706,6.22385763 706.223858,6 706.5,6 L710.5,6 C710.504197,6 710.508382,6.00005172 710.512555,6.00015455 C710.638211,5.99695929 710.764894,6.04331062 710.860791,6.13920854 C710.956689,6.23510646 711.003041,6.36178869 710.999845,6.4874452 C710.999948,6.49161765 711,6.49580279 711,6.5 L711,10.5 C711,10.7761424 710.776142,11 710.5,11 C710.223858,11 710,10.7761424 710,10.5 L710,7.67215829 L704.811367,12.8607915 C704.625755,13.0464028 704.32482,13.0464028 704.139209,12.8607915 C703.953597,12.6751801 703.953597,12.3742446 704.139209,12.1886332 L709.327842,7 Z" transform="translate(-704 -6)"/>
</svg>
