<svg xmlns="http://www.w3.org/2000/svg" width="16" height="17" viewBox="0 0 16 17">
  <path fill="#E1E1E1" fill-rule="evenodd" d="M1227.54513,183 C1231.15405,183 1234.09026,185.948632 1234.09026,189.573617 C1234.09026,191.122799 1233.55049,192.546352 1232.65429,193.671901 L1236.78691,197.822044 C1237.07103,198.107632 1237.07103,198.569246 1236.78691,198.854833 C1236.64448,198.997261 1236.45822,199.06811 1236.2727,199.06811 C1236.08645,199.06811 1235.9002,198.997261 1235.7585,198.854833 L1231.62589,194.704689 C1230.50618,195.604544 1229.08847,196.147233 1227.54513,196.147233 C1223.93622,196.147233 1221,193.19787 1221,189.573617 C1221,185.948632 1223.93622,183 1227.54513,183 Z M1227.55097,194.68716 C1230.35864,194.68716 1232.64187,192.392968 1232.64187,189.574347 C1232.64187,186.754996 1230.35864,184.460804 1227.55097,184.460804 C1224.74404,184.460804 1222.4608,186.754996 1222.4608,189.574347 C1222.4608,192.392968 1224.74404,194.68716 1227.55097,194.68716 Z" transform="translate(-1221 -183)"/>
</svg>
