<svg xmlns="http://www.w3.org/2000/svg" xmlns:xlink="http://www.w3.org/1999/xlink" width="24" height="24" viewBox="0 0 24 24">
  <defs>
    <path id="settigns-active-a" d="M19.42,13.6386667 L17.9086667,13.8366667 C17.798,14.1933333 17.6546667,14.5393333 17.4806667,14.8713333 L18.4046667,16.0833333 C18.6066667,16.3486667 18.5826667,16.7213333 18.3486667,16.958 L17,18.3153333 C16.7666667,18.5493333 16.3986667,18.5773333 16.1313333,18.382 L14.89,17.4686667 C14.5533333,17.6473333 14.2026667,17.7933333 13.84,17.9053333 L13.6386667,19.4213333 C13.5946667,19.7526667 13.312,20 12.978,20 L11.022,20 C10.6866667,20 10.4033333,19.7513333 10.3606667,19.4186667 L10.166,17.9106667 C9.81133333,17.8006667 9.466,17.6593333 9.13533333,17.486 L7.91466667,18.4073333 C7.65,18.6073333 7.27933333,18.582 7.04333333,18.348 L5.68533333,17.0006667 C5.45133333,16.768 5.42266667,16.4 5.61666667,16.134 L6.52266667,14.8933333 C6.34066667,14.55 6.192,14.1933333 6.07866667,13.8253333 L4.584,13.6393333 C4.25066667,13.5973333 4,13.3146667 4,12.978 L4,11.022 C4,10.686 4.24933333,10.4033333 4.58266667,10.3606667 L6.08933333,10.1693333 C6.204,9.80533333 6.35133333,9.45333333 6.53266667,9.11533333 L5.6,7.92333333 C5.39333333,7.658 5.416,7.28133333 5.65266667,7.042 L7.00066667,5.68533333 C7.23666667,5.448 7.612,5.422 7.87733333,5.624 L9.10333333,6.55666667 C9.442,6.37733333 9.79533333,6.23066667 10.1613333,6.11733333 L10.3613333,4.58066667 C10.404,4.24866667 10.6866667,4 11.022,4 L12.978,4 C13.3153333,4 13.5986667,4.25133333 13.6393333,4.586 L13.8266667,6.116 C14.178,6.22466667 14.5186667,6.36533333 14.8473333,6.536 L16.084,5.59333333 C16.3473333,5.39333333 16.72,5.41666667 16.958,5.652 L18.3153333,7.00066667 C18.5513333,7.23533333 18.578,7.608 18.3773333,7.874 L17.4533333,9.10266667 C17.6346667,9.44133333 17.784,9.796 17.9,10.162 L19.42,10.3613333 C19.752,10.404 20,10.6873333 20,11.022 L20,12.978 C20,13.3126667 19.752,13.5953333 19.42,13.6386667 Z M18.6666667,11.6073333 L17.2873333,11.4266667 C17.012,11.3906667 16.7873333,11.1873333 16.7246667,10.9166667 C16.6,10.3826667 16.3873333,9.878 16.092,9.416 C15.9413333,9.182 15.9533333,8.878 16.1206667,8.65533333 L16.9626667,7.536 L16.4293333,7.00666667 L15.3046667,7.86333333 C15.0853333,8.03066667 14.7853333,8.04466667 14.55,7.9 C14.09,7.61533333 13.5933333,7.41133333 13.072,7.29333333 C12.7973333,7.23066667 12.592,7.00333333 12.558,6.724 L12.388,5.33333333 L11.608,5.33333333 L11.426,6.73133333 C11.39,7.008 11.1853333,7.23333333 10.9126667,7.29466667 C10.3786667,7.41666667 9.87266667,7.62666667 9.408,7.91933333 C9.172,8.06866667 8.87133333,8.05533333 8.64933333,7.886 L7.53533333,7.03933333 L7.01266667,7.56533333 L7.86133333,8.64933333 C8.03533333,8.87266667 8.05,9.18133333 7.898,9.41933333 C7.60066667,9.88466667 7.388,10.3913333 7.26533333,10.9246667 C7.202,11.1966667 6.97666667,11.4006667 6.69933333,11.436 L5.33333333,11.6093333 L5.33333333,12.3893333 L6.68933333,12.558 C6.968,12.592 7.196,12.7986667 7.25733333,13.0733333 C7.376,13.604 7.58666667,14.1113333 7.88133333,14.5806667 C8.02666667,14.812 8.016,15.108 7.85533333,15.3286667 L7.03133333,16.458 L7.572,16.9946667 L8.682,16.1573333 C8.902,15.9906667 9.20133333,15.978 9.43533333,16.1233333 C9.896,16.4093333 10.3946667,16.614 10.9173333,16.732 C11.19,16.794 11.396,17.02 11.4313333,17.2973333 L11.608,18.6666667 L12.394,18.6666667 L12.5766667,17.2906667 C12.6133333,17.014 12.818,16.7906667 13.0886667,16.7286667 C13.6166667,16.6073333 14.1186667,16.3993333 14.5793333,16.1093333 C14.8113333,15.9633333 15.1086667,15.9746667 15.3293333,16.1366667 L16.4593333,16.9673333 L16.9926667,16.43 L16.1513333,15.3273333 C15.9833333,15.1066667 15.9693333,14.8046667 16.1166667,14.5693333 C16.4046667,14.1093333 16.612,13.61 16.7306667,13.0853333 C16.792,12.8133333 17.0173333,12.608 17.294,12.572 L18.6666667,12.3926667 L18.6666667,11.6073333 Z M12,15.3426667 C10.162,15.3426667 8.66666667,13.8466667 8.66666667,12.0093333 C8.66666667,10.1713333 10.162,8.676 12,8.676 C13.838,8.676 15.3333333,10.1713333 15.3333333,12.0093333 C15.3333333,13.8466667 13.838,15.3426667 12,15.3426667 Z M12,10.0086667 C10.8973333,10.0086667 10,10.906 10,12.0093333 C10,13.112 10.8973333,14.0093333 12,14.0093333 C13.1026667,14.0093333 14,13.112 14,12.0093333 C14,10.906 13.1026667,10.0086667 12,10.0086667 Z"/>
  </defs>
  <use fill="#473454" fill-rule="evenodd" xlink:href="#settigns-active-a"/>
</svg>
