<?xml version="1.0" encoding="UTF-8"?>
<svg width="24px" height="20px" viewBox="0 0 24 20" version="1.1" xmlns="http://www.w3.org/2000/svg" xmlns:xlink="http://www.w3.org/1999/xlink">
    <!-- Generator: Sketch 53.2 (72643) - https://sketchapp.com -->
    <title>icons/mainNav Copy 3</title>
    <desc>Created with Sketch.</desc>
    <defs>
        <path d="M21.3888889,20 L1.94444444,20 C0.872083333,20 0,19.1033511 0,18.0004025 L0,2.0006038 C0,0.897655228 0.872083333,0 1.94444444,0 L8.75,0 C8.78013889,0 8.80541667,0.0150950991 8.83555556,0.0181141189 C8.90166667,0.0241521586 8.96388889,0.0372345778 9.02805556,0.0573613767 C9.09125,0.0774881755 9.15055556,0.101640334 9.20791667,0.133843212 C9.23416667,0.148938311 9.26333333,0.150950991 9.28958333,0.16805877 L12.0156944,2.03783838 L21.3888889,2.03783838 C22.46125,2.03783838 23.3333333,2.89725269 23.3333333,4.00020127 L23.3333333,18.0004025 C23.3333333,19.1033511 22.46125,20 21.3888889,20 Z M21.6666667,3.33333333 L11.6656944,3.33333333 C11.5519444,3.33333333 11.5002976,3.37559961 11.3904364,3.33333333 C11.3554364,3.31521921 11.2911065,3.35647915 11.2570787,3.33333333 L8.33333333,1.66666667 L1.66666667,1.66666667 L1.66666667,18.3333333 L21.6666667,18.3333333 L21.6666667,3.33333333 Z M9.17388889,7.10073463 L15.0072222,10.0050317 C15.33875,10.1700715 15.5506944,10.5132334 15.5555556,10.8916172 C15.5604167,11.2710073 15.35625,11.619201 15.0295833,11.7932978 L9.19527778,14.8887994 C9.05625,14.9632686 8.90263889,15.0005032 8.75,15.0005032 C8.57402778,15.0005032 8.39902778,14.9511925 8.24444444,14.8545839 C7.95472222,14.6724363 7.77777778,14.3494012 7.77777778,14.0002013 L7.77777778,8.00040254 C7.77777778,7.65623428 7.94986111,7.33521183 8.23375,7.15306431 C8.51763889,6.96991044 8.87347222,6.95078998 9.17388889,7.10073463 Z M9.72222222,12.3588608 L12.4094444,10.9328771 L9.72222222,9.59545134 L9.72222222,12.3588608 Z" id="path-1"></path>
    </defs>
    <g id="Page-1" stroke="none" stroke-width="1" fill="none" fill-rule="evenodd">
        <g id="Dashboard" transform="translate(-181.000000, -236.000000)">
            <g id="Group-14" transform="translate(141.000000, 191.000000)">
                <g id="Icons/-Main-Nav-/-Videos" transform="translate(32.000000, 35.000000)">
                    <g id="colors/primaryWhite" transform="translate(8.333333, 10.000000)">
                        <mask id="mask-2" fill="white">
                            <use xlink:href="#path-1"></use>
                        </mask>
                        <use id="Mask" fill="#FFFFFF" xlink:href="#path-1"></use>
                        <g id="colors/secondary/purple" mask="url(#mask-2)" fill="#5624BB" fill-rule="nonzero">
                            <g transform="translate(-8.333333, -10.000000)" id="Rectangle">
                                <rect x="0" y="0" width="40" height="40"></rect>
                            </g>
                        </g>
                    </g>
                </g>
            </g>
        </g>
    </g>
</svg>