<?xml version="1.0" encoding="UTF-8"?>
<svg width="28px" height="20px" viewBox="0 0 28 20" version="1.1" xmlns="http://www.w3.org/2000/svg" xmlns:xlink="http://www.w3.org/1999/xlink">
    <!-- Generator: Sketch 53.2 (72643) - https://sketchapp.com -->
    <title>icons/mainNav Copy 7</title>
    <desc>Created with Sketch.</desc>
    <defs>
        <path d="M26.6666667,16.1725 L26.6666667,16.6666667 C26.6666667,17.1266667 26.3152941,17.5 25.8823529,17.5 L18.0392157,17.5 C17.6062745,17.5 17.254902,17.1266667 17.254902,16.6666667 C17.254902,16.2066667 17.6062745,15.8333333 18.0392157,15.8333333 L25.0862745,15.8333333 C24.8996078,13.09 22.4666667,10.8333333 19.6078431,10.8333333 C18.3388235,10.8333333 17.1403922,11.26 16.1419608,12.0683333 C15.7968627,12.3466667 15.3058824,12.2758333 15.0431373,11.9108333 C14.7803922,11.545 14.8470588,11.0216667 15.1921569,10.7425 C15.9035294,10.1666667 16.7207843,9.75583333 17.5803922,9.4925 C16.0023529,8.68416667 14.9019608,6.9825 14.9019608,5 C14.9019608,2.24333333 17.012549,0 19.6078431,0 C22.2031373,0 24.3137255,2.24333333 24.3137255,5 C24.3137255,6.97416667 23.2219608,8.66916667 21.654902,9.48083333 C24.52,10.3758333 26.6666667,13.0783333 26.6666667,16.1725 Z M22.745098,5 C22.745098,3.1625 21.3380392,1.66666667 19.6078431,1.66666667 C17.8776471,1.66666667 16.4705882,3.1625 16.4705882,5 C16.4705882,6.8375 17.8776471,8.33333333 19.6078431,8.33333333 C21.3380392,8.33333333 22.745098,6.8375 22.745098,5 Z M10.0572549,11.1666667 C13.2705882,12.1416667 15.6862745,15.1541667 15.6862745,18.6108333 L15.6862745,19.1666667 C15.6862745,19.6266667 15.334902,20 14.9019608,20 L0.784313725,20 C0.351372549,20 0,19.6266667 0,19.1666667 L0,18.6108333 C0,15.1541667 2.41568627,12.1416667 5.62901961,11.1666667 C3.70196078,10.26 2.35294118,8.2125 2.35294118,5.83333333 C2.35294118,2.61666667 4.81568627,0 7.84313725,0 C10.8705882,0 13.3333333,2.61666667 13.3333333,5.83333333 C13.3333333,8.2125 11.9843137,10.26 10.0572549,11.1666667 Z M1.57568627,18.3333333 L14.1105882,18.3333333 C13.9560784,15.1441667 11.1490196,12.5 7.84313725,12.5 C4.5372549,12.5 1.73019608,15.1441667 1.57568627,18.3333333 Z M7.84313725,1.66666667 C5.68078431,1.66666667 3.92156863,3.53583333 3.92156863,5.83333333 C3.92156863,8.13083333 5.68078431,10 7.84313725,10 C10.0054902,10 11.7647059,8.13083333 11.7647059,5.83333333 C11.7647059,3.53583333 10.0054902,1.66666667 7.84313725,1.66666667 Z" id="path-1"></path>
    </defs>
    <g id="Page-1" stroke="none" stroke-width="1" fill="none" fill-rule="evenodd">
        <g id="Dashboard" transform="translate(-475.000000, -236.000000)">
            <g id="Group-15" transform="translate(437.000000, 191.000000)">
                <g id="Group-8" transform="translate(20.000000, 23.000000)">
                    <g id="Icons/-Main-Nav-/-Users" transform="translate(12.000000, 12.000000)">
                        <g id="users" transform="translate(6.666667, 10.000000)">
                            <g id="colors/primaryWhite">
                                <mask id="mask-2" fill="white">
                                    <use xlink:href="#path-1"></use>
                                </mask>
                                <use id="Mask" fill="#5624BB" xlink:href="#path-1"></use>
                                <g id="colors/secondary/purple" mask="url(#mask-2)" fill="#5624BB" fill-rule="nonzero">
                                    <g transform="translate(-6.666667, -10.000000)" id="Rectangle">
                                        <rect x="0" y="0" width="40" height="40"></rect>
                                    </g>
                                </g>
                            </g>
                        </g>
                    </g>
                </g>
            </g>
        </g>
    </g>
</svg>