<svg xmlns="http://www.w3.org/2000/svg" xmlns:xlink="http://www.w3.org/1999/xlink" width="24" height="24" viewBox="0 0 24 24">
  <defs>
    <path id="users-active-a" d="M20,15.7035 L20,16 C20,16.276 19.7891765,16.5 19.5294118,16.5 L14.8235294,16.5 C14.5637647,16.5 14.3529412,16.276 14.3529412,16 C14.3529412,15.724 14.5637647,15.5 14.8235294,15.5 L19.0517647,15.5 C18.9397647,13.854 17.48,12.5 15.7647059,12.5 C15.0032941,12.5 14.2842353,12.756 13.6851765,13.241 C13.4781176,13.408 13.1835294,13.3655 13.0258824,13.1465 C12.8682353,12.927 12.9082353,12.613 13.1152941,12.4455 C13.5421176,12.1 14.0324706,11.8535 14.5482353,11.6955 C13.6014118,11.2105 12.9411765,10.1895 12.9411765,9 C12.9411765,7.346 14.2075294,6 15.7647059,6 C17.3218824,6 18.5882353,7.346 18.5882353,9 C18.5882353,10.1845 17.9331765,11.2015 16.9929412,11.6885 C18.712,12.2255 20,13.847 20,15.7035 Z M17.6470588,9 C17.6470588,7.8975 16.8028235,7 15.7647059,7 C14.7265882,7 13.8823529,7.8975 13.8823529,9 C13.8823529,10.1025 14.7265882,11 15.7647059,11 C16.8028235,11 17.6470588,10.1025 17.6470588,9 Z M10.0343529,12.7 C11.9623529,13.285 13.4117647,15.0925 13.4117647,17.1665 L13.4117647,17.5 C13.4117647,17.776 13.2009412,18 12.9411765,18 L4.47058824,18 C4.21082353,18 4,17.776 4,17.5 L4,17.1665 C4,15.0925 5.44941176,13.285 7.37741176,12.7 C6.22117647,12.156 5.41176471,10.9275 5.41176471,9.5 C5.41176471,7.57 6.88941176,6 8.70588235,6 C10.5223529,6 12,7.57 12,9.5 C12,10.9275 11.1905882,12.156 10.0343529,12.7 Z M4.94541176,17 L12.4663529,17 C12.3736471,15.0865 10.6894118,13.5 8.70588235,13.5 C6.72235294,13.5 5.03811765,15.0865 4.94541176,17 Z M8.70588235,7 C7.40847059,7 6.35294118,8.1215 6.35294118,9.5 C6.35294118,10.8785 7.40847059,12 8.70588235,12 C10.0032941,12 11.0588235,10.8785 11.0588235,9.5 C11.0588235,8.1215 10.0032941,7 8.70588235,7 Z"/>
  </defs>
  <use fill="#473454" fill-rule="evenodd" xlink:href="#users-active-a"/>
</svg>
