<svg xmlns="http://www.w3.org/2000/svg" width="24" height="24" viewBox="0 0 24 24">
  <path fill="#5624BB" fill-rule="evenodd" d="M20,12.5 L20,8 C20,6.8954305 19.1045695,6 18,6 L5,6 C3.8954305,6 3,6.8954305 3,8 L3,15 C3,16.1045695 3.8954305,17 5,17 L11.5,17 C11.7761424,17 12,17.2238576 12,17.5 C12,17.7761424 11.7761424,18 11.5,18 L5,18 C3.34314575,18 2,16.6568542 2,15 L2,8 C2,6.34314575 3.34314575,5 5,5 L18,5 C19.6568542,5 21,6.34314575 21,8 L21,12.5 C21,12.7761424 20.7761424,13 20.5,13 C20.2238576,13 20,12.7761424 20,12.5 Z M11.5,15 C9.56700338,15 8,13.4329966 8,11.5 C8,9.56700338 9.56700338,8 11.5,8 C13.4329966,8 15,9.56700338 15,11.5 C15,13.4329966 13.4329966,15 11.5,15 Z M11.5,14 C12.8807119,14 14,12.8807119 14,11.5 C14,10.1192881 12.8807119,9 11.5,9 C10.1192881,9 9,10.1192881 9,11.5 C9,12.8807119 10.1192881,14 11.5,14 Z M11,10 L13,11.5 L11,13 L11,10 Z M19.5355339,18 L14.5,18 C14.2238576,18 14,17.7761424 14,17.5 C14,17.2238576 14.2238576,17 14.5,17 L19.2928932,17 L17.3535534,15.0606602 C17.1582912,14.865398 17.1582912,14.5488155 17.3535534,14.3535534 C17.5488155,14.1582912 17.865398,14.1582912 18.0606602,14.3535534 L20.8890873,17.1819805 C21.0086231,17.3015163 21.0549813,17.4665188 21.028162,17.6213203 C21.0549813,17.7761218 21.0086231,17.9411244 20.8890873,18.0606602 L18.0606602,20.8890873 C17.865398,21.0843494 17.5488155,21.0843494 17.3535534,20.8890873 C17.1582912,20.6938252 17.1582912,20.3772427 17.3535534,20.1819805 L19.5355339,18 Z"/>
</svg>
