<svg xmlns="http://www.w3.org/2000/svg" xmlns:xlink="http://www.w3.org/1999/xlink" width="24" height="24" viewBox="0 0 24 24">
  <defs>
    <path id="videos-active-a" d="M17.8333333,18 L6.16666667,18 C5.52325,18 5,17.4620107 5,16.8002415 L5,7.20036228 C5,6.53859314 5.52325,6 6.16666667,6 L10.25,6 C10.2680833,6 10.28325,6.00905706 10.3013333,6.01086847 C10.341,6.0144913 10.3783333,6.02234075 10.4168333,6.03441683 C10.45475,6.04649291 10.4903333,6.0609842 10.52475,6.08030593 C10.5405,6.08936299 10.558,6.09057059 10.57375,6.10083526 L12.2094167,7.22270303 L17.8333333,7.22270303 C18.47675,7.22270303 19,7.73835162 19,8.40012076 L19,16.8002415 C19,17.4620107 18.47675,18 17.8333333,18 Z M18,8 L11.9994167,8 C11.9311667,8 11.9001785,8.02535977 11.8342619,8 C11.8132619,7.98913153 11.7746639,8.01388749 11.7542472,8 L10,7 L6,7 L6,17 L18,17 L18,8 Z M10.5043333,10.2604408 L14.0043333,12.003019 C14.20325,12.1020429 14.3304167,12.30794 14.3333333,12.5349703 C14.33625,12.7626044 14.21375,12.9715206 14.01775,13.0759787 L10.5171667,14.9332797 C10.43375,14.9779612 10.3415833,15.0003019 10.25,15.0003019 C10.1444167,15.0003019 10.0394167,14.9707155 9.94666667,14.9127503 C9.77283333,14.8034618 9.66666667,14.6096407 9.66666667,14.4001208 L9.66666667,10.8002415 C9.66666667,10.5937406 9.76991667,10.4011271 9.94025,10.2918386 C10.1105833,10.1819463 10.3240833,10.170474 10.5043333,10.2604408 Z M10.8333333,13.4153165 L12.4456667,12.5597263 L10.8333333,11.7572708 L10.8333333,13.4153165 Z"/>
  </defs>
  <use fill="#473454" fill-rule="evenodd" xlink:href="#videos-active-a"/>
</svg>
