<?xml version="1.0" encoding="UTF-8"?>
<svg width="14px" height="12px" viewBox="0 0 14 12" version="1.1" xmlns="http://www.w3.org/2000/svg" xmlns:xlink="http://www.w3.org/1999/xlink">
    <!-- Generator: Sketch 53.2 (72643) - https://sketchapp.com -->
    <title>icons/mainNav Copy 3</title>
    <desc>Created with Sketch.</desc>
    <defs>
        <path d="M12.8333333,12 L1.16666667,12 C0.52325,12 0,11.4620107 0,10.8002415 L0,1.20036228 C0,0.538593137 0.52325,0 1.16666667,0 L5.25,0 C5.26808333,0 5.28325,0.00905705947 5.30133333,0.0108684714 C5.341,0.0144912952 5.37833333,0.0223407467 5.41683333,0.034416826 C5.45475,0.0464929053 5.49033333,0.0609842005 5.52475,0.0803059273 C5.5405,0.0893629868 5.558,0.0905705947 5.57375,0.100835262 L7.20941667,1.22270303 L12.8333333,1.22270303 C13.47675,1.22270303 14,1.73835162 14,2.40012076 L14,10.8002415 C14,11.4620107 13.47675,12 12.8333333,12 Z M13,2 L6.99941667,2 C6.93116667,2 6.90017853,2.02535977 6.83426186,2 C6.81326186,1.98913153 6.77466389,2.01388749 6.75424722,2 L5,1 L1,1 L1,11 L13,11 L13,2 Z M5.50433333,4.26044078 L9.00433333,6.00301902 C9.20325,6.10204287 9.33041667,6.30794002 9.33333333,6.53497031 C9.33625,6.76260441 9.21375,6.97152058 9.01775,7.07597867 L5.51716667,8.93327966 C5.43375,8.97796116 5.34158333,9.0003019 5.25,9.0003019 C5.14441667,9.0003019 5.03941667,8.97071551 4.94666667,8.91275033 C4.77283333,8.80346181 4.66666667,8.60964074 4.66666667,8.40012076 L4.66666667,4.80024152 C4.66666667,4.59374057 4.76991667,4.4011271 4.94025,4.29183858 C5.11058333,4.18194626 5.32408333,4.17047399 5.50433333,4.26044078 Z M5.83333333,7.41531649 L7.44566667,6.55972628 L5.83333333,5.75727081 L5.83333333,7.41531649 Z" id="path-1"></path>
    </defs>
    <g id="Page-1" stroke="none" stroke-width="1" fill="none" fill-rule="evenodd">
        <g id="Dashboard" transform="translate(-1057.000000, -366.000000)">
            <g id="Icons/-Main-Nav-/-Videos" transform="translate(1052.000000, 360.000000)">
                <g id="colors/primaryWhite" transform="translate(5.000000, 6.000000)">
                    <mask id="mask-2" fill="white">
                        <use xlink:href="#path-1"></use>
                    </mask>
                    <use id="Mask" fill="#FFFFFF" xlink:href="#path-1"></use>
                    <g mask="url(#mask-2)" fill-rule="nonzero" id="Rectangle">
                        <g transform="translate(-5.000000, -6.000000)">
                            <rect fill="#323232" x="0" y="0" width="24" height="24"></rect>
                            <rect fill="#FFFFFF" x="0" y="0" width="24" height="24"></rect>
                        </g>
                    </g>
                </g>
            </g>
        </g>
    </g>
</svg>