<?xml version="1.0" encoding="UTF-8"?>
<svg width="17px" height="16px" viewBox="0 0 17 16" version="1.1" xmlns="http://www.w3.org/2000/svg" xmlns:xlink="http://www.w3.org/1999/xlink">
    <!-- Generator: Sketch 53.2 (72643) - https://sketchapp.com -->
    <title>icon</title>
    <desc>Created with Sketch.</desc>
    <g id="Page-1" stroke="none" stroke-width="1" fill="none" fill-rule="evenodd">
        <g id="notice-messages" transform="translate(-160.000000, -368.000000)">
            <g id="notice-message---alert" transform="translate(144.000000, 352.000000)">
                <g id="icon" transform="translate(16.000000, 16.000000)">
                    <path d="M7.91470314,0.576934335 C8.03137824,0.369511934 8.21644323,0.203342419 8.44207389,0.103409119 C9.0174924,-0.151447523 9.70347603,0.0809798722 9.97426121,0.622550235 L16.8903999,14.4548277 C16.962576,14.5991798 17,14.7567494 17,14.9162864 C17,15.5148266 16.4844615,16.0000393 15.8485126,16.0000393 L1.15171777,16.0000393 C0.963903124,16.0000393 0.77893925,15.9568011 0.612950934,15.8740942 C0.0509069296,15.5940445 -0.16350563,14.9381944 0.134047078,14.4092118 L7.91470314,0.576934335 Z" id="Path-2" fill="#FFFFFF"></path>
                    <path d="M8.83929508,5 C9.11543745,5 9.33929508,5.22385763 9.33929508,5.5 L9.33929508,11.5 C9.33929508,11.7761424 9.11543745,12 8.83929508,12 C8.5631527,12 8.33929508,11.7761424 8.33929508,11.5 L8.33929508,5.5 C8.33929508,5.22385763 8.5631527,5 8.83929508,5 Z M8.83929508,14 C8.5631527,14 8.33929508,13.7761424 8.33929508,13.5 C8.33929508,13.2238576 8.5631527,13 8.83929508,13 C9.11543745,13 9.33929508,13.2238576 9.33929508,13.5 C9.33929508,13.7761424 9.11543745,14 8.83929508,14 Z" id="Combined-Shape" fill="#F37366"></path>
                </g>
            </g>
        </g>
    </g>
</svg>